<?xml version="1.0" encoding="utf-8"?>
<!-- Generator: Adobe Illustrator 22.0.1, SVG Export Plug-In . SVG Version: 6.00 Build 0)  -->
<svg version="1.1" id="レイヤー_1" xmlns="http://www.w3.org/2000/svg" xmlns:xlink="http://www.w3.org/1999/xlink" x="0px"
	 y="0px" viewBox="0 0 200 200" style="enable-background:new 0 0 200 200;" xml:space="preserve">
<style type="text/css">
	.st0{fill:#C4D11D;}
	.st1{fill:#FDF7F9;}
	.st2{fill:#FFFFFF;}
	.st3{fill:#6F6E6F;}
	.st4{fill:#E6928F;}
	.st5{fill:#0F9144;}
</style>
<path class="st0" d="M27.3,77.2c1.5,0.8,2.1,2.7,2.1,5c0,0.9-1,1.4-1.6,1.2c-1-0.3-5.9-3.4-6.5-5.4c-0.3-1.1,0.3-4.4-3.6-5.7
	c-4.3-1.5-7.5,3.9-4.8,6.9c2.3,2.6,4,1.8,5,2c1.5,0.4,5.2,5.3,4.5,6.2c-1.1,1.3-9.8,0.3-10.9-1.4c-0.9-1.5-1.3-2.2-3.2-2.6
	C6.4,83,3.5,83.8,2.9,87c-0.9,5.3,5.9,5.5,7.7,3.7c1.1-1.1,9.3,1.6,9.1,3.7C19.5,97,16,98.2,14,97.8c-0.8-0.2-2.3-2-4.8-1.1
	c-2.3,0.8-3.8,2.9-2.4,5.9c1.9,4,7.1,2.6,8.6-1.2c0.4-0.9,3.1-1.1,5.7-0.4c6.6,1.6,10.2,0.2,14.1-0.6c2.6-0.5,24.8,8.7,24.8,8.7
	s4.5,0.9,6.2-2.8c1.9-4.1-2.7-6.5-2.7-6.5S40,92,38.6,90.1c-0.5-0.7-0.3-2.1-1.9-4.4c-1.6-2.2-2.8-1.9-3.5-3.5
	c-1-2.4-1.4-3.5-1.1-4.7c0.3-1.1,0.9-1.3,1.5-3.1c0.7-2.2-1.7-6.4-5.7-4.8C23.8,71.2,25,76,27.3,77.2z"/>
<path class="st0" d="M67,91.5c0,0-17.6,32.1-6.2,53.5c7.3,13.7,23.6,19.3,40.5,18.1c16.9-1.2,27.6-8.4,33.3-23
	c6.6-16.9-9.4-51.1-9.4-51.1"/>
<path class="st1" d="M75.3,88.4c0,0-12.7,33.4-4.5,48.8c5.2,9.9,17,13.9,29.1,13c12.1-0.9,19.8-6,23.9-16.5
	c4.7-12.2-8.3-45.6-8.3-45.6"/>
<path class="st0" d="M81,157L81,184c0,0-6.1-3.6-10-0.1l-6.1-3.2c0,0,1.3-4-2.3-4.8c-3.5-0.8-5.7,2.2-4.3,4.9l6.9,3.6l-10-0.9
	c0,0-0.2-3.5-4.2-2.2c-5.2,1.6-1,6.2-1,6.2l14.1-1l-8.2,6.5c0,0-5.6-0.4-4.6,2.6c1.6,4.6,5.8,0,5.8,0l11-6.2l18.8-0.6
	c0,0,4.2,4.5,7-0.8c2.6-4.9-3-6.2-3-6.2l-0.3-24.2"/>
<path class="st0" d="M111,157l0.1,26.9c0,0,6.1-3.6,10-0.1l6.1-3.2c0,0-1.3-4,2.3-4.8c3.5-0.8,5.7,2.2,4.3,4.9l-6.9,3.6l10-0.9
	c0,0,0.2-3.5,4.2-2.2c5.2,1.6,1,6.2,1,6.2l-14.1-1l8.2,6.5c0,0,5.6-0.4,4.6,2.6c-1.6,4.6-5.8,0-5.8,0l-11-6.2l-18.8-0.6
	c0,0-4.2,4.5-7-0.8c-2.6-4.9,3-6.2,3-6.2l0.3-24.2"/>
<path class="st0" d="M165,24c0-11.5-9.7-20.9-21.7-20.9c-8,0-14.9,4.2-18.7,10.4c-7.8-4.5-17.2-7.2-28.4-7.2
	c-10.4,0-19.4,2.6-27.1,6.9c-3.8-6-10.7-10.1-18.5-10.1C38.7,3.1,29,12.4,29,24c0,9.1,6,16.8,14.4,19.7c-2.8,7-4.2,14.2-4.2,20.9
	c0,25.3,25.6,33.1,57.1,33.1c31.5,0,57.1-7.9,57.1-33.1c0-6.6-1.3-13.6-3.8-20.5C158.5,41.4,165,33.4,165,24z"/>
<path class="st2" d="M159.6,24c0,8.7-7.4,15.8-16.4,15.8c-9.1,0-16.4-7.1-16.4-15.8s7.4-15.8,16.4-15.8
	C152.3,8.1,159.6,15.2,159.6,24z"/>
<path class="st3" d="M155.4,24c0,6.5-5.4,11.7-12.1,11.7c-6.7,0-12.2-5.2-12.2-11.7s5.4-11.7,12.2-11.7
	C149.9,12.2,155.4,17.5,155.4,24z"/>
<path class="st2" d="M67.1,24c0,8.7-7.4,15.8-16.4,15.8c-9.1,0-16.4-7.1-16.4-15.8S41.6,8.1,50.7,8.1C59.7,8.1,67.1,15.2,67.1,24z"
	/>
<ellipse class="st3" cx="50.7" cy="24" rx="12.2" ry="11.7"/>
<path class="st3" d="M61.1,60.5c0,0,10.4,12.3,34.2,11.7c23.8-0.6,39.8-13.5,39.8-13.5l1.5,4.3c0,0-12.6,12.1-41.3,12.3
	C65.4,75.4,57.4,62,57.4,62L61.1,60.5z"/>
<path class="st4" d="M156.8,60c0,5.6-4.5,10.1-10.1,10.1c-5.6,0-10.1-4.5-10.1-10.1c0-5.6,4.5-10.1,10.1-10.1
	C152.3,49.9,156.8,54.4,156.8,60z"/>
<path class="st4" d="M56.8,60c0,5.6-4.5,10.1-10.1,10.1S36.6,65.6,36.6,60c0-5.6,4.5-10.1,10.1-10.1S56.8,54.4,56.8,60z"/>
<path class="st5" d="M127.9,91.7c3-0.4,6.7-3.2,9.6-5.8c4.6-4.2,12.8-13,23.5-13.6c12.6-0.7,21.8-23.9,21.8-23.9l13.6,11.7
	c0,0-11,19.6-33.2,23.2c-16.5,2.7-20,8.6-22.4,10.1c-3.4,2-5.2,3.7-9.8,4.9"/>
<path class="st5" d="M54.1,97.1c0.6,1.7-0.4,5,24.3,5.1c17.5,0.1,56.2-1.1,57.9-7c1.7-5.8-3.6-4.2-3.6-4.2S99,95.5,82.6,94.9
	c-9.6-0.4-23.3-4.2-26.1-3.2C53.7,92.5,53.9,96.5,54.1,97.1z"/>
<path class="st0" d="M162.1,77.2c-1.5,0.8-2.1,2.7-2.1,5c0,0.9,1,1.4,1.6,1.2c1-0.3,5.9-3.4,6.5-5.4c0.3-1.1-0.3-4.4,3.6-5.7
	c4.3-1.5,7.5,3.9,4.8,6.9c-2.3,2.6-4,1.8-5,2c-1.5,0.4-5.2,5.3-4.5,6.2c1.1,1.3,9.8,0.3,10.9-1.4c0.9-1.5,1.3-2.2,3.2-2.6
	c1.9-0.5,4.8,0.3,5.4,3.6c0.9,5.3-5.9,5.5-7.7,3.7c-1.1-1.1-9.3,1.6-9.1,3.7c0.3,2.5,3.7,3.8,5.7,3.3c0.8-0.2,2.3-2,4.8-1.1
	c2.3,0.8,3.8,2.9,2.4,5.9c-1.9,4-7.1,2.6-8.6-1.2c-0.4-0.9-3.1-1.1-5.7-0.4c-6.6,1.6-10.2,0.2-14.1-0.6c-2.6-0.5-24.8,8.7-24.8,8.7
	s-4.5,0.9-6.2-2.8c-1.9-4.1,2.7-6.5,2.7-6.5s23.4-7.7,24.8-9.6c0.5-0.7,0.3-2.1,1.9-4.4c1.6-2.2,2.8-1.9,3.5-3.5
	c1-2.4,1.4-3.5,1.1-4.7c-0.3-1.1-0.9-1.3-1.5-3.1c-0.7-2.2,1.7-6.4,5.7-4.8C165.7,71.2,164.4,76,162.1,77.2z"/>
<path class="st0" d="M96.9,145c-0.1,0-0.2,0-0.3,0c-11.6-0.1-20.3-6.1-22.1-15.3c-0.1-0.7-0.3-2.3,0.7-3.6c0.5-0.6,1.3-1.3,2.9-1.3
	c0.7,0,4,0,8.4,0c6.1,0,14.7,0,20.8,0c4.5,0,7.7,0,8.4,0h0c1.6,0.1,2.5,0.8,2.9,1.3c1,1.3,0.8,2.9,0.7,3.6
	C117.6,138.7,108.4,145,96.9,145z M80.7,127.4c-1.3,0-2.2,0-2.5,0c-0.5,0-0.8,0.1-1,0.3c-0.3,0.3-0.3,1-0.2,1.5
	c1.5,7.9,9.2,13.1,19.6,13.2c0.1,0,0.2,0,0.3,0c10.3,0,18.4-5.4,20-13.2c0.1-0.5,0.1-1.1-0.2-1.5c-0.2-0.2-0.5-0.3-1-0.3
	c-0.7,0-4.1,0-8.3,0c-6.1,0-14.7,0-20.8,0C84.2,127.4,82.2,127.4,80.7,127.4z"/>
</svg>
