<?xml version="1.0" encoding="utf-8"?>
<!-- Generator: Adobe Illustrator 21.0.2, SVG Export Plug-In . SVG Version: 6.00 Build 0)  -->
<svg version="1.1" id="レイヤー_1" xmlns="http://www.w3.org/2000/svg" xmlns:xlink="http://www.w3.org/1999/xlink" x="0px"
	 y="0px" viewBox="0 0 34 34" style="enable-background:new 0 0 34 34;" xml:space="preserve">
<style type="text/css">
	.st0{fill:#FFFFFF;}
	.st1{fill:#9A999B;}
</style>
<circle class="st0" cx="17.4" cy="16.4" r="14"/>
<g>
	<polygon class="st1" points="24.7,10.8 23.3,9.4 17.5,15.1 11.7,9.4 10.3,10.8 16.1,16.6 10.3,22.4 11.7,23.8 17.5,18 23.3,23.8 
		24.7,22.4 18.9,16.6 	"/>
	<path class="st1" d="M17.2,3.8c7.2,0,13,5.8,13,13s-5.8,13-13,13s-13-5.8-13-13S10.1,3.8,17.2,3.8 M17.2,1.8c-8.3,0-15,6.7-15,15
		s6.7,15,15,15s15-6.7,15-15S25.5,1.8,17.2,1.8L17.2,1.8z"/>
</g>
</svg>
