<?xml version="1.0" encoding="utf-8"?>
<!-- Generator: Adobe Illustrator 21.0.0, SVG Export Plug-In . SVG Version: 6.00 Build 0)  -->
<svg version="1.1" id="レイヤー_1" xmlns="http://www.w3.org/2000/svg" xmlns:xlink="http://www.w3.org/1999/xlink" x="0px"
	 y="0px" viewBox="0 0 26 26" style="enable-background:new 0 0 26 26;" xml:space="preserve">
<style type="text/css">
	.st0{fill:#FFFFFF;}
	.st1{fill:#F9B900;}
</style>
<g>
	<path class="st0" d="M22.8,11.5c2.2-2.5,2.1-6-0.1-8.2c-1.1-1.1-2.6-1.7-4.1-1.7c-1.5,0-2.9,0.5-4.1,1.5C14,3,13.5,3,12.9,3
		c-0.5,0-1,0.1-1.5,0.1c-1.2-1-2.6-1.5-4.1-1.5c-1.6,0-3,0.6-4.1,1.7C1,5.6,0.9,9,3.1,11.5C3,12,3,12.4,3,12.9c0,2.7,1.1,5.2,3,7.1
		l-1.3,4.7h5.9l0.5-2c0.6,0.1,1.2,0.2,1.8,0.2c0.6,0,1.1,0,1.7-0.1l0.5,2h5.9l-1.2-4.7c1.9-1.9,3-4.4,3-7.1
		C22.9,12.4,22.8,12,22.8,11.5z"/>
	<g>
		<g>
			<g>
				<circle class="st1" cx="12.9" cy="12.9" r="7.8"/>
				<circle class="st0" cx="12.9" cy="12.9" r="6.3"/>
				<g>
					<polygon class="st1" points="13.1,8.4 12.8,8.4 12.6,6.9 13.2,6.9 					"/>
					<polygon class="st1" points="12.7,17.5 13.1,17.5 13.2,19 12.6,19 					"/>
				</g>
				<g>
					<polygon class="st1" points="17.5,13.2 17.5,12.8 19,12.7 19,13.3 					"/>
					<polygon class="st1" points="8.4,12.8 8.4,13.1 6.9,13.3 6.9,12.7 					"/>
				</g>
				<rect x="12.5" y="8.9" class="st1" width="1" height="5"/>
				
					<rect x="14.9" y="11.4" transform="matrix(-1.836970e-16 1 -1 -1.836970e-16 28.2968 -2.2781)" class="st1" width="0.8" height="3.2"/>
			</g>
			<g>
				<path class="st1" d="M21.1,10.2c1.3-1.5,1.7-3.7,0.1-5.3c-1.5-1.5-3.8-1.3-5.3,0c1.2,0.4,2.3,1.1,3.3,2.1
					C20,7.8,20.7,9,21.1,10.2z"/>
				<path class="st1" d="M4.8,10.2C3.5,8.7,3.1,6.4,4.7,4.8c1.5-1.5,3.8-1.3,5.3,0C8.9,5.2,7.8,5.9,6.8,6.9C5.9,7.8,5.2,9,4.8,10.2z
					"/>
			</g>
		</g>
		<polygon class="st1" points="9,22.6 7.5,22.6 8.4,19.2 9.9,19.2 		"/>
		<polygon class="st1" points="16.8,22.6 18.3,22.6 17.4,19.2 15.9,19.2 		"/>
	</g>
</g>
</svg>
