<?xml version="1.0" encoding="utf-8"?>
<!-- Generator: Adobe Illustrator 21.1.0, SVG Export Plug-In . SVG Version: 6.00 Build 0)  -->
<svg version="1.1" id="レイヤー_1" xmlns="http://www.w3.org/2000/svg" xmlns:xlink="http://www.w3.org/1999/xlink" x="0px"
	 y="0px" viewBox="0 0 85 85" style="enable-background:new 0 0 85 85;" xml:space="preserve">
<style type="text/css">
	.st0{fill:#FFFFFF;}
	.st1{fill:none;}
	.st2{fill:#B5B5B6;}
	.st3{fill:#898989;}
</style>
<g>
	<path class="st0" d="M3.9,81.5V1.9h43.7l10.3,10.7c1.8-1.7,4.2-2.7,6.7-2.7c2.4,0,4.7,0.9,6.4,2.5l8.2,7.4
		c3.9,3.5,4.2,9.6,0.7,13.6L78.4,35c-1.8,2-4.4,3.1-7.1,3.1c0,0-0.4,0-0.6,0c-1.5,1-3.3,2.4-3.9,3.1c0,0-0.1,0.1-0.1,0.1v40.2H3.9z"
		/>
	<path class="st0" d="M74.7,24.8l-8.2-7.4c-1.1-1-2.9-0.9-4,0.2L61,19.3c-0.9,1-0.9,2.5-0.1,3.6c-0.2,0.6-0.5,1.4-1,2.3v-0.6
		L44.7,8.7h-34v66H60V39.1c0.5-0.7,1.1-1.5,1.7-2.2c1.6-1.9,5.9-5,8.2-6c1.1,0.7,2.6,0.6,3.5-0.4l1.5-1.7
		C75.9,27.6,75.8,25.9,74.7,24.8z"/>
	<path class="st1" d="M43.9,25.2v-2.5h-26V21h26v-8.1l-0.7-0.7H14.1v59.2h42.4V59.8c-0.4,0.4-0.8,0.8-1.2,1.1
		c-1,0.8-2.3,1.2-3.7,1.2c-3.1,0-7-2-11.5-6H17.9v-1.7h20.4c-2.7-2.6-4.4-4.8-5.4-6.7h-15V46h14.2c-0.9-2.6-0.5-4.5,0.3-5.8
		c0.2-0.3,0.4-0.6,0.6-0.8H17.9v-1.7h16.7c0.7-0.7,1.5-1.5,2.6-2.4c2.9-2.6,6.5-3.1,9.1-3.1c1,0,2.1,0.1,3,0.3
		c0.2-0.1,1-0.6,2.1-1.4H17.9v-1.7h34.7v0.5c0.2-0.2,0.4-0.4,0.7-0.6c0.7-0.7,1.8-2.3,2.6-3.9l-0.1-0.1H43.9z M52.7,62.7v1.7H17.9
		v-1.7H52.7z"/>
	<path class="st2" d="M56,25.3c0,0,0-0.1,0.1-0.1h-0.2L56,25.3z"/>
	<path class="st2" d="M56.5,59.8v11.6H14.1V12.1h29.1l0.7,0.7v-2.4l12.9,13.3c0.1-0.2,0.3-0.5,0.4-0.7c-0.2-0.5-0.3-1.1-0.3-1.7
		L44.7,8.7h-34v66h49.2V55.5c0,0.1-0.1,0.1-0.1,0.2C58.5,57.5,57.4,58.8,56.5,59.8z"/>
	<rect x="17.9" y="21" class="st2" width="26" height="1.7"/>
	<path class="st2" d="M52.7,29.3H17.9V31h33.4c0.4-0.3,0.8-0.7,1.3-1.2V29.3z"/>
	<path class="st2" d="M34.6,37.7H17.9v1.7h15.2C33.5,38.8,34,38.3,34.6,37.7z"/>
	<path class="st2" d="M17.9,46v1.7h15c-0.3-0.6-0.6-1.1-0.8-1.7H17.9z"/>
	<path class="st2" d="M38.3,54.4H17.9v1.7h22.3c-0.2-0.2-0.5-0.4-0.7-0.6C39.1,55.1,38.7,54.7,38.3,54.4z"/>
	<rect x="17.9" y="62.7" class="st2" width="34.7" height="1.7"/>
	<path class="st3" d="M43.9,10.4v2.4V21v1.7v2.5h11.9H56c0.3-0.5,0.5-1,0.8-1.5L43.9,10.4z"/>
	<path class="st3" d="M57,53.7c2.2-3,1.8-7.2,1-9.7c-0.4-1.4,1.2-4.4,3.5-7.2c1.6-1.9,5.9-5,8.2-6c1.1,0.7,2.6,0.6,3.5-0.4l1.5-1.7
		c1-1.1,0.9-2.9-0.2-4l-8.2-7.4c-1.1-1-2.9-0.9-4,0.2l-1.5,1.7c-0.9,1-0.9,2.5-0.1,3.6c-0.8,2.4-3.4,6.9-5.1,8.7
		c-2.5,2.6-5.4,4.5-6.8,4.2c-2.5-0.5-6.7-0.5-9.5,2C37.3,39.7,36,41,35.4,42c-1.2,1.9,0.8,5.8,6.4,10.9c0,0,0,0,0,0c0,0,0,0,0,0
		c5.6,5.1,9.7,6.6,11.5,5.2C54.2,57.4,55.4,56,57,53.7z"/>
</g>
</svg>
