<?xml version="1.0" encoding="utf-8"?>
<!-- Generator: Adobe Illustrator 21.0.0, SVG Export Plug-In . SVG Version: 6.00 Build 0)  -->
<svg version="1.1" id="レイヤー_1" xmlns="http://www.w3.org/2000/svg" xmlns:xlink="http://www.w3.org/1999/xlink" x="0px"
	 y="0px" viewBox="0 0 26 26" style="enable-background:new 0 0 26 26;" xml:space="preserve">
<style type="text/css">
	.st0{fill:#FFFFFF;}
	.st1{fill:#5286BF;}
</style>
<g>
	<polygon class="st0" points="25.5,15.7 13,3.2 0.5,15.7 5.9,15.7 5.9,22.2 20.1,22.2 20.1,15.7 	"/>
	<g>
		<g>
			<path class="st1" d="M13,6.9L13,6.9L13,6.9L13,6.9C13.1,7,19.5,13.4,20,14h1.3L13,5.6L4.6,14h1.3C6.5,13.4,12.9,7,13,6.9L13,6.9z
				"/>
			<path class="st1" d="M18.3,13.1c0,0-5.3-5.3-5.4-5.4v0l0,0l0,0v0c-0.1,0.1-5.4,5.4-5.4,5.4v7.3h10.7L18.3,13.1L18.3,13.1z"/>
		</g>
		<rect x="10.5" y="12.9" class="st0" width="5" height="5"/>
		<polygon class="st1" points="16.4,15.2 13.2,15.2 13.2,12 12.7,12 12.7,15.2 9.6,15.2 9.6,15.7 12.7,15.7 12.7,18.8 13.2,18.8 
			13.2,15.7 16.4,15.7 		"/>
	</g>
</g>
</svg>
