<?xml version="1.0" encoding="utf-8"?>
<!-- Generator: Adobe Illustrator 21.1.0, SVG Export Plug-In . SVG Version: 6.00 Build 0)  -->
<svg version="1.1" id="レイヤー_1" xmlns="http://www.w3.org/2000/svg" xmlns:xlink="http://www.w3.org/1999/xlink" x="0px"
	 y="0px" viewBox="0 0 85 85" style="enable-background:new 0 0 85 85;" xml:space="preserve">
<style type="text/css">
	.st0{fill:#FFFFFF;}
	.st1{fill:#F9B900;}
</style>
<g>
	<path class="st0" d="M77.5,36.6c7.7-9,7.6-21.3-0.3-29.2C73.2,3.5,68,1.3,62.5,1.3c-5.3,0-10.4,1.9-14.5,5.3
		c-1.8-0.3-3.6-0.5-5.4-0.5c-1.9,0-3.7,0.2-5.4,0.5c-4.1-3.4-9.3-5.3-14.5-5.3c-5.6,0-10.8,2.2-14.7,6.1c-8,8-8.1,20.2-0.3,29.2
		c-0.2,1.6-0.4,3.3-0.4,5c0,9.5,3.9,18.6,10.6,25.2l-4.5,16.9h21.1l1.9-7.2c2.1,0.4,4.2,0.6,6.3,0.6c2,0,4.1-0.2,6-0.5l1.9,7.2h21.1
		L67.1,67c6.8-6.6,10.8-15.8,10.8-25.4C77.9,39.9,77.7,38.2,77.5,36.6z"/>
	<g>
		<g>
			<g>
				<circle class="st1" cx="42.5" cy="41.6" r="27.7"/>
				<path class="st0" d="M42.5,64.2C30,64.2,19.9,54,19.9,41.6S30,19,42.5,19c12.5,0,22.6,10.1,22.6,22.6S54.9,64.2,42.5,64.2z"/>
				<g>
					<polygon class="st1" points="43.2,25.5 41.9,25.5 41.4,20.2 43.5,20.2 					"/>
					<polygon class="st1" points="41.8,57.9 43.1,57.9 43.5,63.2 41.4,63.2 					"/>
				</g>
				<g>
					<polygon class="st1" points="58.7,42.4 58.7,41.1 64,40.6 64,42.7 					"/>
					<polygon class="st1" points="26.3,41 26.3,42.3 21,42.7 21,40.6 					"/>
				</g>
				<rect x="40.9" y="27.2" class="st1" width="3.4" height="18"/>
				
					<rect x="49.4" y="36.3" transform="matrix(-1.836970e-16 1 -1 -1.836970e-16 92.7303 -8.952)" class="st1" width="3" height="11.2"/>
			</g>
			<g>
				<path class="st1" d="M71.5,31.8c4.6-5.3,5.9-13.3,0.2-19c-5.4-5.4-13.7-4.7-19-0.2C57,14.1,61,16.6,64.3,20
					C67.7,23.5,70.1,27.5,71.5,31.8z"/>
				<path class="st1" d="M13.4,31.8c-4.6-5.3-5.9-13.3-0.2-19c5.4-5.4,13.7-4.7,19-0.2C28,14.1,24,16.6,20.6,20
					C17.2,23.5,14.9,27.5,13.4,31.8z"/>
			</g>
		</g>
		<polygon class="st1" points="28.4,75.9 23.2,75.9 26.4,63.9 31.5,63.9 		"/>
		<polygon class="st1" points="56.3,75.9 61.5,75.9 58.3,63.9 53.2,63.9 		"/>
	</g>
</g>
</svg>
