<?xml version="1.0" encoding="utf-8"?>
<!-- Generator: Adobe Illustrator 21.1.0, SVG Export Plug-In . SVG Version: 6.00 Build 0)  -->
<svg version="1.1" id="レイヤー_1" xmlns="http://www.w3.org/2000/svg" xmlns:xlink="http://www.w3.org/1999/xlink" x="0px"
	 y="0px" viewBox="0 0 85 85" style="enable-background:new 0 0 85 85;" xml:space="preserve">
<style type="text/css">
	.st0{fill:#FFFFFF;}
	.st1{fill:#88A1C9;}
	.st2{fill:#FAC600;}
</style>
<g>
	<path class="st0" d="M77.2,46.7c-2.1-7.7-9.4-13.6-18-14c1-2.6,1.6-5.5,1.6-8.5c0-12.6-10.3-22.9-22.9-22.9S15,11.6,15,24.2
		c0,5.2,1.8,10,4.7,13.8c-7.5,5.4-12.2,14-12.6,23.6l0,14h29.5v7.7h43.2V46.7H77.2z"/>
	<circle class="st1" cx="37.9" cy="23.2" r="15.6"/>
	<path class="st1" d="M43.4,50.6v-0.5c0-3.6,1.6-7,4.3-9.5c-0.7-0.3-1.3-0.6-2-0.9c-2.3,1.3-4.9,2-7.8,2c-2.8,0-5.4-0.8-7.8-2
		c-8.9,3.1-15.3,11.3-15.7,21.2v6.4h27V53.1C41.4,51.9,42.2,50.8,43.4,50.6z"/>
	<path class="st2" d="M70.4,53.1v-3c0-6-5.6-11.1-12.2-11.1C51.6,39,46,44.1,46,50.1v3h-2V75h28.5V53.1H70.4z M49.4,50.1
		c0-4.4,4-8,8.8-8s8.8,3.7,8.8,8v3H49.4V50.1z M55.7,71.5l1.2-5.7c-1.4-0.7-2.4-2.1-2.4-3.8c0-2.2,1.7-4,3.9-4.2c2.2,0.2,4,2,4,4.2
		c0,1.7-1,3.1-2.4,3.8l0.8,5.7"/>
</g>
</svg>
