<?xml version="1.0" encoding="utf-8"?>
<!-- Generator: Adobe Illustrator 21.0.2, SVG Export Plug-In . SVG Version: 6.00 Build 0)  -->
<svg version="1.1" id="レイヤー_1" xmlns="http://www.w3.org/2000/svg" xmlns:xlink="http://www.w3.org/1999/xlink" x="0px"
	 y="0px" viewBox="0 0 21 23" style="enable-background:new 0 0 21 23;" xml:space="preserve">
<style type="text/css">
	.st0{fill:#B1B1B2;}
	.st1{fill:#A6A6A7;}
	.st2{fill:#E5BA00;}
	.st3{fill:#F1C623;}
	.st4{fill:#E2A700;}
	.st5{fill:#BF8C00;}
</style>
<g>
	<path class="st0" d="M5,7.3c0-3,2.4-5.4,5.4-5.4s5.4,2.4,5.4,5.4v1.2h1.7V7.3c0-3.9-3.2-7.1-7.1-7.1S3.3,3.3,3.3,7.3v1.2H5V7.3z"/>
	<path class="st1" d="M12,0.4v1.8c2.2,0.7,3.8,2.7,3.8,5.1v1.2h1.7V7.3C17.5,3.9,15.2,1.1,12,0.4z"/>
	<path class="st2" d="M18.6,22.2H2.2c-0.5,0-1-0.4-1-1V9.9c0-0.5,0.4-1,1-1h16.5c0.5,0,1,0.4,1,1v11.3
		C19.6,21.7,19.2,22.2,18.6,22.2z"/>
	<path class="st3" d="M1.9,8.9c-0.5,0-1,0.4-1,1v11.3c0,0.5,0.4,1,1,1h10.2V8.9H1.9z"/>
	<path class="st4" d="M18.6,22.7H2.2c-0.9,0-1.6-0.7-1.6-1.6V9.9c0-0.9,0.7-1.6,1.6-1.6h16.5c0.9,0,1.6,0.7,1.6,1.6v11.3
		C20.2,22,19.5,22.7,18.6,22.7z M2.2,9.5c-0.2,0-0.4,0.2-0.4,0.4v11.3c0,0.2,0.2,0.4,0.4,0.4h16.5c0.2,0,0.4-0.2,0.4-0.4V9.9
		c0-0.2-0.2-0.4-0.4-0.4H2.2z"/>
	<path class="st5" d="M12.4,14.1c0-1.1-0.9-2-2-2s-2,0.9-2,2c0,0.6,0.3,1.2,0.7,1.5l-0.6,3.9h3.7l-0.6-3.9
		C12.1,15.3,12.4,14.7,12.4,14.1z"/>
</g>
</svg>
