<?xml version="1.0" encoding="utf-8"?>
<!-- Generator: Adobe Illustrator 21.0.0, SVG Export Plug-In . SVG Version: 6.00 Build 0)  -->
<svg version="1.1" id="レイヤー_1" xmlns="http://www.w3.org/2000/svg" xmlns:xlink="http://www.w3.org/1999/xlink" x="0px"
	 y="0px" viewBox="0 0 26 26" style="enable-background:new 0 0 26 26;" xml:space="preserve">
<style type="text/css">
	.st0{fill:#FFFFFF;}
	.st1{fill:#ADCE00;}
	.st2{fill:#7AB629;}
	.st3{fill:#997004;}
	.st4{fill:#946327;}
	.st5{fill:#A27F39;}
	.st6{fill:#F2C02C;}
	.st7{fill:#22050D;}
</style>
<g>
	<polygon class="st0" points="3.2,25 3.2,2.3 14.8,2.3 18.3,6.2 18.9,5.6 23.1,10.2 19.8,13.7 19.8,25 	"/>
	<g>
		<g>
			<polygon class="st1" points="14,4.5 5.4,4.5 5.4,22.9 17.9,22.9 17.9,8.8 			"/>
			<rect x="6.5" y="7.6" class="st0" width="10.2" height="0.5"/>
			<rect x="6.5" y="10" class="st0" width="10.2" height="0.5"/>
			<rect x="6.5" y="12.5" class="st0" width="10.2" height="0.5"/>
			<rect x="6.5" y="14.9" class="st0" width="10.2" height="0.5"/>
			<rect x="6.5" y="17.4" class="st0" width="10.2" height="0.5"/>
			<rect x="6.5" y="19.9" class="st0" width="10.2" height="0.5"/>
			<polygon class="st2" points="14.1,8.8 18.3,8.8 14.1,4.5 			"/>
		</g>
		<g>
			<rect x="12.4" y="11.6" transform="matrix(0.7071 -0.7071 0.7071 0.7071 -3.9941 15.7)" class="st3" width="9.1" height="2.1"/>
			<rect x="13" y="13" transform="matrix(0.7071 -0.7071 0.7071 0.7071 -4.2723 16.3147)" class="st4" width="9.1" height="0.6"/>
			
				<rect x="11.9" y="11.9" transform="matrix(0.7071 -0.7071 0.7071 0.7071 -3.8122 15.2147)" class="st5" width="9.1" height="0.6"/>
			<polygon class="st6" points="14.5,16.6 13,15.1 12.2,17.5 			"/>
			<path class="st7" d="M13.1,17.1C13,17,13,16.9,12.9,16.8s-0.2-0.2-0.3-0.2l-0.3,0.9L13.1,17.1z"/>
		</g>
	</g>
</g>
<g>
	<polygon class="st0" points="3.2,25 3.2,2.3 14.8,2.3 18.3,6.2 18.9,5.6 23.1,10.2 19.8,13.7 19.8,25 	"/>
	<g>
		<g>
			<polygon class="st1" points="14,4.5 5.4,4.5 5.4,22.9 17.9,22.9 17.9,8.8 			"/>
			<rect x="6.5" y="7.6" class="st0" width="10.2" height="0.5"/>
			<rect x="6.5" y="10" class="st0" width="10.2" height="0.5"/>
			<rect x="6.5" y="12.5" class="st0" width="10.2" height="0.5"/>
			<rect x="6.5" y="14.9" class="st0" width="10.2" height="0.5"/>
			<rect x="6.5" y="17.4" class="st0" width="10.2" height="0.5"/>
			<rect x="6.5" y="19.9" class="st0" width="10.2" height="0.5"/>
			<polygon class="st2" points="14,8.8 17.9,8.8 14,4.5 			"/>
		</g>
		<g>
			
				<rect x="12.4" y="11.7" transform="matrix(0.7075 -0.7067 0.7067 0.7075 -4.0637 15.7361)" class="st3" width="9.1" height="2.1"/>
			<polygon class="st4" points="14.1,16.3 20.5,9.9 20.9,10.3 14.5,16.7 			"/>
			
				<rect x="11.9" y="11.9" transform="matrix(0.7071 -0.7071 0.7071 0.7071 -3.8421 15.2198)" class="st5" width="9.1" height="0.6"/>
			<polygon class="st6" points="14.5,16.7 13,15.3 12.2,17.6 			"/>
			<path class="st7" d="M13,17.3c0-0.2,0-0.3-0.1-0.4s-0.3-0.2-0.4-0.2l-0.3,0.9L13,17.3z"/>
		</g>
	</g>
</g>
</svg>
