<?xml version="1.0" encoding="utf-8"?>
<!-- Generator: Adobe Illustrator 21.0.2, SVG Export Plug-In . SVG Version: 6.00 Build 0)  -->
<svg version="1.1" id="レイヤー_1" xmlns="http://www.w3.org/2000/svg" xmlns:xlink="http://www.w3.org/1999/xlink" x="0px"
	 y="0px" viewBox="0 0 26 26" style="enable-background:new 0 0 26 26;" xml:space="preserve">
<style type="text/css">
	.st0{fill:#FFFFFF;}
</style>
<g>
	<path class="st0" d="M12.9,2.5c-4,0-6.5,2.4-6.5,6.2c0,0.3,0.3,0.5,0.5,0.5h2.6c0.3,0,0.5-0.3,0.5-0.5c-0.1-1.7,1-2.9,2.7-2.9
		c1.5,0,2.6,1,2.6,2.5s-0.7,2.3-1.6,3.1l-0.4,0.4c-1.3,1.2-2.8,2.5-2.8,5.3c0,0.3,0.3,0.5,0.5,0.5h2.5c0.3,0,0.5-0.3,0.5-0.5
		c0-1.7,0.9-2.5,2-3.4l0.4-0.4c1.2-1.1,2.5-2.4,2.5-5C19.2,4.5,16.8,2.5,12.9,2.5z"/>
	<path class="st0" d="M12.6,18.5c-1.4,0-2.4,1.1-2.4,2.5c0,1.4,1,2.5,2.4,2.5s2.4-1.1,2.4-2.5C15,19.6,14,18.5,12.6,18.5z"/>
</g>
</svg>
