<?xml version="1.0" encoding="utf-8"?>
<!-- Generator: Adobe Illustrator 21.0.2, SVG Export Plug-In . SVG Version: 6.00 Build 0)  -->
<svg version="1.1" id="レイヤー_1" xmlns="http://www.w3.org/2000/svg" xmlns:xlink="http://www.w3.org/1999/xlink" x="0px"
	 y="0px" viewBox="0 0 28 28" style="enable-background:new 0 0 28 28;" xml:space="preserve">
<style type="text/css">
	.st0{fill:#FFFFFF;}
	.st1{fill:#5295C4;}
</style>
<g>
	<path class="st0" d="M6.9,11.6v10.1h0c0.1,0.3,2.8,0.6,7.1,0.6s7-0.3,7.1-0.6h0V11.6H6.9z"/>
	<path class="st1" d="M15.9,15.3c0-1.1-0.9-1.9-1.9-1.9S12,14.2,12,15.3c0,0.6,0.3,1.1,0.7,1.5l-0.5,3.8h3.5l-0.5-3.8
		C15.6,16.4,15.9,15.8,15.9,15.3z"/>
	<path class="st0" d="M21.1,11.7c0,0.2-2.8,0.4-7.1,0.4s-7.1-0.2-7.1-0.4s2.8-0.4,7.1-0.4S21.1,11.4,21.1,11.7z"/>
	<path class="st0" d="M10.2,11.8H8.6V8.5C8.6,5.5,11,3,14,3c3,0,5.4,2.4,5.4,5.4v3.3h-1.6V8.5c0-2.1-1.7-3.8-3.8-3.8
		s-3.8,1.7-3.8,3.8V11.8z"/>
</g>
</svg>
