<?xml version="1.0" encoding="utf-8"?>
<!-- Generator: Adobe Illustrator 21.0.2, SVG Export Plug-In . SVG Version: 6.00 Build 0)  -->
<svg version="1.1" id="レイヤー_1" xmlns="http://www.w3.org/2000/svg" xmlns:xlink="http://www.w3.org/1999/xlink" x="0px"
	 y="0px" viewBox="0 0 32 32" style="enable-background:new 0 0 32 32;" xml:space="preserve">
<style type="text/css">
	.st0{fill:#686767;}
	.st1{fill:#FFFFFF;}
</style>
<path class="st0" d="M7.5,7.2C6.6,7.2,6,6.6,6,5.7v-4c0-0.8,0.7-1.5,1.5-1.5S9,0.8,9,1.7v4.1C9,6.6,8.3,7.2,7.5,7.2z"/>
<path class="st0" d="M29.5,3.2h-2.2v2.5c0,1.4-1.1,2.5-2.5,2.5s-2.5-1.1-2.5-2.5V3.2H10v2.5c0,1.4-1.1,2.5-2.5,2.5S5,7.1,5,5.7V3.2
	H2.8c-0.7,0-1.3,0.6-1.3,1.3v22.7c0,0.7,0.6,1.3,1.3,1.3h26.7c0.7,0,1.3-0.6,1.3-1.3V4.5C30.8,3.8,30.2,3.2,29.5,3.2z"/>
<path class="st0" d="M24.8,7.2c-0.8,0-1.5-0.7-1.5-1.5v-4c0-0.8,0.7-1.5,1.5-1.5s1.5,0.7,1.5,1.5v4.1C26.3,6.6,25.6,7.2,24.8,7.2z"
	/>
<rect x="3.5" y="9.1" class="st1" width="25.3" height="17.4"/>
<rect x="19" y="11.4" class="st0" width="3" height="3"/>
<rect x="23.3" y="11.4" class="st0" width="3" height="3"/>
<rect x="19" y="16.2" class="st0" width="3" height="3"/>
<rect x="23.3" y="16.2" class="st0" width="3" height="3"/>
<rect x="14.7" y="16.2" class="st0" width="3" height="3"/>
<rect x="10.4" y="16.2" class="st0" width="3" height="3"/>
<rect x="6.1" y="16.2" class="st0" width="3" height="3"/>
<rect x="19" y="21" class="st0" width="3" height="3"/>
<rect x="23.3" y="21" class="st0" width="3" height="3"/>
<rect x="14.7" y="21" class="st0" width="3" height="3"/>
<rect x="10.4" y="21" class="st0" width="3" height="3"/>
<rect x="6.1" y="21" class="st0" width="3" height="3"/>
</svg>
