<svg id="レイヤー_1" data-name="レイヤー 1" xmlns="http://www.w3.org/2000/svg" xmlns:xlink="http://www.w3.org/1999/xlink" viewBox="0 0 166 50"><defs><style>.cls-1{fill:#8d8d8e;}.cls-2{fill:#d3d3d4;}.cls-3{fill:#c4d11d;}.cls-4{fill:#fdf7f9;}.cls-5{fill:#fff;}.cls-6{fill:#6f6e6f;}.cls-7{fill:#e6928f;}.cls-8{fill:#0f9144;}.cls-9{fill:url(#名称未設定グラデーション_47);}.cls-10{fill:url(#名称未設定グラデーション_47-2);}</style><linearGradient id="名称未設定グラデーション_47" x1="152.33" y1="34.23" x2="158.04" y2="9.33" gradientTransform="translate(-0.87 -3.55) rotate(0.83)" gradientUnits="userSpaceOnUse"><stop offset="0" stop-color="#c0bbbb"/><stop offset="1" stop-color="#666"/></linearGradient><linearGradient id="名称未設定グラデーション_47-2" x1="143.84" y1="14.21" x2="143.06" y2="33.15" xlink:href="#名称未設定グラデーション_47"/></defs><title>アートボード 1</title><path class="cls-1" d="M70.81,18.51v-.84a9,9,0,0,0-2.68-6.37c-1.21-1.18-3.48-2.58-7.37-2.58h-.5C50.16,9,50,18.08,50,18.17v5.9c0,.09.14,9.13,10.24,9.44h.55c4,0,6.17-1.33,7.33-2.45a9.55,9.55,0,0,0,2.68-6.24V24H65.12v.84a4.73,4.73,0,0,1-.95,2.66,5.22,5.22,0,0,1-3.65,1.39h-.19c-4.77-.15-4.82-4.78-4.82-4.83V18.2a4.78,4.78,0,0,1,4.82-4.76h.17a5.17,5.17,0,0,1,3.62,1.45,5.23,5.23,0,0,1,1,2.78v.84Z"/><polygon class="cls-1" points="114.66 14.22 114.66 8.79 97.36 8.79 97.36 33.62 114.66 33.62 114.66 28.14 102.43 28.14 102.43 23.5 112.13 23.5 112.13 18.44 102.43 18.44 102.43 14.22 114.66 14.22"/><path class="cls-1" d="M89.17,8.74H77.49L71.88,33.63h5.79l1.7-7.17H87.3L89,33.63h5.79ZM80.56,21.39l1.6-6.75H84.5l1.6,6.75Z"/><path class="cls-1" d="M136.94,15.76a6.84,6.84,0,0,0-2-5.08,7.4,7.4,0,0,0-4.93-2H118.36v24.9h5.06V23.07h3.84l2.37,10.56h5.8L133,22.27A6.94,6.94,0,0,0,136.94,15.76Zm-5.06,0a2.08,2.08,0,0,1-2,2.25h-6.45V13.79H130a2.39,2.39,0,0,1,1.43.52A2,2,0,0,1,131.88,15.76Z"/><path class="cls-2" d="M67.35,38.37l.23-.39a2.25,2.25,0,0,0-.37-2.87c-.62-.53-2-1.16-5.05-1.16h-.4c-8,.15-10.56,4.29-10.59,4.33L49.55,41S47.15,45.16,55,45.3h.4a16.52,16.52,0,0,0,6.44-1.16,8.19,8.19,0,0,0,3.82-2.89l.23-.39H61.4l-.23.39a4.17,4.17,0,0,1-1.49,1.25,8.67,8.67,0,0,1-3.25.65h-.14C52.61,43.09,53.82,41,53.84,41l1.6-2.67s1.31-2.11,5.07-2.18h.15a3.67,3.67,0,0,1,2.43.62,1.16,1.16,0,0,1,0,1.23l-.23.39Z"/><polygon class="cls-2" points="154.45 36.4 155.84 34.09 142.33 34.1 135.74 45.07 149.25 45.07 150.64 42.76 141.08 42.76 142.24 40.83 149.81 40.83 151.2 38.52 143.63 38.52 144.9 36.41 154.45 36.4"/><polygon class="cls-2" points="82.52 33.93 79.75 38.55 71.84 38.56 74.62 33.93 70.67 33.94 63.85 45.3 67.8 45.3 70.46 40.87 78.36 40.86 75.71 45.29 79.66 45.29 86.48 33.93 82.52 33.93"/><path class="cls-2" d="M101.2,33.92H92.08L80.87,45.29H85.4l3.1-3.08h6.35l-.6,3.08h4.52Zm-10.38,6,3.29-3.27h1.83l-.64,3.27Z"/><path class="cls-2" d="M129.7,40.07,128.55,42h2.22a3.37,3.37,0,0,1-.75.48,8.47,8.47,0,0,1-3.22.65h-.14c-3.65-.06-2.47-2.1-2.42-2.18l1.6-2.67c.05-.09,1.31-2.11,5-2.18H131a3.64,3.64,0,0,1,2.42.62c.29.25.21.92,0,1.23l-.23.39h4.44l.23-.39a2.25,2.25,0,0,0-.37-2.87c-.61-.53-2-1.16-5-1.16h-.4c-8,.14-10.53,4.29-10.56,4.33L120,41s-2.41,4.17,5.37,4.31h.4a16.88,16.88,0,0,0,6.09-1l-.61,1h3.29l3.12-5.2Z"/><polygon class="cls-2" points="118.7 33.91 114.43 41.03 109.52 33.92 106.18 33.92 99.36 45.28 103.65 45.28 107.33 39.15 111.66 45.28 116.16 45.27 122.98 33.91 118.7 33.91"/><path class="cls-3" d="M6.87,19.84A1.32,1.32,0,0,1,7.38,21a.32.32,0,0,1-.38.3c-.25-.08-1.43-.82-1.56-1.29-.08-.28.07-1-.86-1.38a1.06,1.06,0,0,0-1.16,1.67,1.39,1.39,0,0,0,1.21.48c.35.09,1.25,1.27,1.07,1.48A3.28,3.28,0,0,1,3.09,22a1,1,0,0,0-.78-.63A1,1,0,0,0,1,22.2c-.21,1.27,1.41,1.32,1.85.9.27-.26,2.23.4,2.18.88s-.89.91-1.38.79c-.19,0-.54-.49-1.16-.26a1,1,0,0,0-.58,1.43c.45,1,1.71.63,2.08-.3.09-.23.74-.26,1.36-.1a6.23,6.23,0,0,0,3.4-.15c.62-.13,6,2.1,6,2.1a1.39,1.39,0,0,0,1.49-.68c.45-1-.65-1.56-.65-1.56s-5.63-1.86-6-2.32a3.77,3.77,0,0,0-.45-1c-.38-.52-.68-.46-.85-.85-.25-.57-.34-.84-.26-1.14s.22-.32.36-.74A1,1,0,0,0,7,18,1,1,0,0,0,6.87,19.84Z"/><path class="cls-3" d="M16.43,23.27S12.2,31,14.94,36.14c1.75,3.3,5.69,4.65,9.75,4.36s6.63-2,8-5.54c1.59-4.08-2.27-12.28-2.27-12.28"/><path class="cls-4" d="M18.43,22.54s-3,8-1.07,11.74c1.26,2.37,4.09,3.34,7,3.13s4.77-1.45,5.75-4c1.14-2.93-2-11-2-11"/><path class="cls-3" d="M19.79,39v6.48s-1.47-.87-2.41,0l-1.46-.77s.32-1-.56-1.16-1.37.53-1,1.18l1.66.87-2.41-.21s0-.84-1-.53c-1.24.39-.25,1.5-.25,1.5l3.39-.24-2,1.56s-1.35-.09-1.1.63c.38,1.1,1.4,0,1.4,0l2.65-1.49,4.53-.14s1,1.08,1.69-.19-.72-1.5-.72-1.5l-.07-5.82"/><path class="cls-3" d="M27,39v6.48s1.47-.87,2.41,0l1.46-.77s-.32-1,.56-1.16,1.37.53,1,1.18l-1.66.87,2.41-.21s0-.84,1-.53c1.24.39.25,1.5.25,1.5l-3.39-.24,2,1.56s1.35-.09,1.1.63c-.38,1.1-1.4,0-1.4,0l-2.65-1.49-4.53-.14s-1,1.08-1.69-.19.72-1.5.72-1.5l.07-5.82"/><path class="cls-3" d="M40,7a5.12,5.12,0,0,0-5.21-5,5.25,5.25,0,0,0-4.5,2.49,13.48,13.48,0,0,0-6.82-1.74A13.08,13.08,0,0,0,17,4.42,5.25,5.25,0,0,0,12.5,2,5.12,5.12,0,0,0,7.28,7a5,5,0,0,0,3.46,4.73,13.89,13.89,0,0,0-1,5c0,6.08,6.15,8,13.73,8s13.73-1.9,13.73-8a14.58,14.58,0,0,0-.91-4.94A5.05,5.05,0,0,0,40,7Z"/><ellipse class="cls-5" cx="34.75" cy="7.03" rx="3.95" ry="3.81"/><ellipse class="cls-6" cx="34.75" cy="7.03" rx="2.92" ry="2.82"/><ellipse class="cls-5" cx="12.5" cy="7.03" rx="3.95" ry="3.81"/><ellipse class="cls-6" cx="12.5" cy="7.03" rx="2.92" ry="2.82"/><path class="cls-6" d="M15,15.82s2.5,3,8.22,2.81a17.14,17.14,0,0,0,9.57-3.25l.37,1s-3,2.91-9.94,3c-7.2,0-9.11-3.17-9.11-3.17Z"/><circle class="cls-7" cx="35.59" cy="15.69" r="2.43"/><circle class="cls-7" cx="11.54" cy="15.69" r="2.43"/><path class="cls-8" d="M31.06,23.31a5.31,5.31,0,0,0,2.3-1.39c1.1-1,3.08-3.12,5.65-3.27,3-.17,5.25-5.75,5.25-5.75l3.27,2.82a12.15,12.15,0,0,1-8,5.59,9,9,0,0,0-5.4,2.43,7.68,7.68,0,0,1-2.36,1.19"/><path class="cls-9" d="M145.77,33.07c9.35,2,11.92-6.73,11.94-6.81l4-13.08h0l3.6,1.13-3.62-10-8.65,6.12,3.22,1,.18.06s-3.3,11.74-4,13c-2.07,4-6.63,7.41-11,6.26"/><path class="cls-10" d="M145.78,33.06c-4.27-1.48-2.49-9.91-2.32-10.56s4.22-13.8,4.22-13.8l-6.16-.06L137.8,20.8a10.46,10.46,0,0,0-.07,4.84c.51,2.25,2,5.24,6.47,7l1.57.48"/><path class="cls-8" d="M13.32,24.63c.14.41-.09,1.21,5.84,1.23,4.22,0,13.51-.27,13.92-1.67s-.86-1-.86-1a100.74,100.74,0,0,1-12,.92c-2.32-.09-5.61-1-6.28-.78S13.27,24.47,13.32,24.63Z"/><path class="cls-3" d="M39.31,19.84a1.32,1.32,0,0,0-.51,1.2.32.32,0,0,0,.38.3c.25-.08,1.43-.82,1.56-1.29.08-.28-.07-1,.86-1.38a1.06,1.06,0,0,1,1.16,1.67,1.39,1.39,0,0,1-1.21.48c-.35.09-1.25,1.27-1.07,1.48A3.28,3.28,0,0,0,43.09,22a1.09,1.09,0,0,1,2.07.23c.21,1.27-1.41,1.32-1.85.9-.27-.26-2.23.4-2.18.88s.89.91,1.38.79c.19,0,.54-.49,1.16-.26a1,1,0,0,1,.58,1.43c-.45,1-1.71.63-2.08-.3-.09-.23-.74-.26-1.36-.1a6.23,6.23,0,0,1-3.4-.15c-.62-.13-6,2.1-6,2.1A1.39,1.39,0,0,1,30,26.8c-.45-1,.65-1.56.65-1.56s5.63-1.86,6-2.32a3.77,3.77,0,0,1,.45-1c.38-.52.68-.46.85-.85.25-.57.34-.84.26-1.14s-.22-.32-.36-.74A1,1,0,0,1,39.15,18,1,1,0,0,1,39.31,19.84Z"/><path class="cls-3" d="M23.61,36.14h-.07c-2.8,0-4.89-1.47-5.32-3.68a1.09,1.09,0,0,1,.16-.86.9.9,0,0,1,.71-.32h9.07a.9.9,0,0,1,.71.32,1.09,1.09,0,0,1,.16.86C28.6,34.63,26.37,36.14,23.61,36.14Zm-3.9-4.25h-.6a.32.32,0,0,0-.24.08.49.49,0,0,0,0,.36c.37,1.91,2.22,3.16,4.71,3.18h.07c2.47,0,4.44-1.3,4.8-3.18a.49.49,0,0,0,0-.36.32.32,0,0,0-.24-.08H19.71Z"/></svg>