<?xml version="1.0" encoding="utf-8"?>
<!-- Generator: Adobe Illustrator 21.0.0, SVG Export Plug-In . SVG Version: 6.00 Build 0)  -->
<svg version="1.1" id="レイヤー_1" xmlns="http://www.w3.org/2000/svg" xmlns:xlink="http://www.w3.org/1999/xlink" x="0px"
	 y="0px" viewBox="0 0 18 21" style="enable-background:new 0 0 18 21;" xml:space="preserve">
<style type="text/css">
	.st0{fill:#E60012;}
	.st1{fill:#231815;}
</style>
<g>
	<path class="st0" d="M15.8,8c0-0.1,0-0.1,0-0.2c0-3.7-3-6.8-6.8-6.8c-3.7,0-6.8,3-6.8,6.8c0,0.1,0,0.1,0,0.2l0,0.1
		c0.1,2.4,2.4,4.6,3.3,5.6C6.7,14.8,9,19.4,9,19.4s2.3-4.6,3.4-5.8C13.4,12.7,15.7,10.5,15.8,8L15.8,8z"/>
	<path class="st1" d="M9,19.7c-0.1,0-0.2-0.1-0.2-0.1c0,0-2.3-4.6-3.4-5.7c-1-1-3.3-3.3-3.4-5.8l0-0.2c0-3.9,3.1-7,7-7s7,3.1,7,7
		l0,0.1L16,8l0,0.1c-0.1,2.5-2.4,4.8-3.4,5.7c-1.1,1.1-3.4,5.7-3.4,5.7C9.2,19.6,9.1,19.7,9,19.7z M9,1.3c-3.6,0-6.5,2.9-6.5,6.5
		l0,0.1c0,0,0,0.1,0,0.1l0,0.1c0.1,2.3,2.3,4.5,3.2,5.4c1,1,2.7,4.2,3.3,5.4c0.6-1.2,2.3-4.4,3.2-5.4c1-1,3.2-3.2,3.3-5.4l0-0.1
		c0,0,0-0.1,0-0.1l0-0.1C15.5,4.3,12.6,1.3,9,1.3z M15.8,8L15.8,8L15.8,8z"/>
</g>
<circle class="st1" cx="9" cy="7.3" r="3.2"/>
</svg>
